<?xml version="1.0" encoding="UTF-8"?>
<svg version="1.1" xmlns="http://www.w3.org/2000/svg" width="614" height="614">
<path d="M0 0 C14.85 0 29.7 0 45 0 C46.98 6.27 48.96 12.54 51 19 C58.03565445 22.82125488 58.03565445 22.82125488 65 23 C68.08919052 21.38286361 70.98072161 19.62714798 73.91601562 17.75585938 C78.515855 14.94622775 78.515855 14.94622775 81.0100708 15.22325134 C83.2594438 16.10127125 84.42475473 17.06192255 86.11621094 18.77563477 C86.69651062 19.35616104 87.2768103 19.93668732 87.87469482 20.5348053 C88.79523651 21.47857277 88.79523651 21.47857277 89.734375 22.44140625 C90.37240051 23.08367661 91.01042603 23.72594696 91.66778564 24.38768005 C93.70234118 26.43901726 95.72621379 28.50054273 97.75 30.5625 C99.12821491 31.95576234 100.50711325 33.34834898 101.88671875 34.74023438 C105.26579046 38.15236865 108.63531864 41.57367707 112 45 C110.58049544 49.51916713 108.84904447 52.89105282 106.1875 56.8125 C103.61548768 60.94767449 103.61548768 60.94767449 103.140625 65.63671875 C103.91336086 67.92841089 104.80932585 69.89831182 106 72 C106.4021875 73.0051062 106.4021875 73.0051062 106.8125 74.03051758 C107.83263782 76.12892724 107.83263782 76.12892724 109.86352539 76.8972168 C110.60078857 77.07937744 111.33805176 77.26153809 112.09765625 77.44921875 C112.89880859 77.65740234 113.69996094 77.86558594 114.52539062 78.08007812 C115.36263672 78.28052734 116.19988281 78.48097656 117.0625 78.6875 C118.72069212 79.10554231 120.37828084 79.52598788 122.03515625 79.94921875 C122.7712915 80.12799561 123.50742676 80.30677246 124.26586914 80.4909668 C126 81 126 81 127 82 C127.0927833 83.38160115 127.11747043 84.76788038 127.11352539 86.15258789 C127.11344986 87.03342545 127.11337433 87.914263 127.11329651 88.8217926 C127.10813522 89.77907761 127.10297394 90.73636261 127.09765625 91.72265625 C127.09553383 93.18547279 127.09553383 93.18547279 127.09336853 94.67784119 C127.08775133 97.80609143 127.07519593 100.93427123 127.0625 104.0625 C127.05748722 106.17773334 127.05292393 108.29296781 127.04882812 110.40820312 C127.03777631 115.60549296 127.02102146 120.80274145 127 126 C125.73061617 126.49140631 124.45973224 126.97893872 123.18823242 127.46484375 C122.48067307 127.73675537 121.77311371 128.00866699 121.04411316 128.28881836 C118.5036208 129.17269874 115.9630631 129.56662326 113.3125 130 C109.7892349 130.91761918 108.37120491 131.52174637 106.1171875 134.42578125 C103.35008912 139.95414369 103.35008912 139.95414369 103.66015625 145.97265625 C105.59008436 150.33328099 108.15086589 154.19799329 110.734375 158.1953125 C111.15203125 159.12085938 111.5696875 160.04640625 112 161 C110.91920316 163.85701119 109.39514523 165.86673605 107.28198242 168.0402832 C106.73769089 168.60378983 106.19339935 169.16729645 105.63261414 169.74787903 C105.04615616 170.34283676 104.45969818 170.93779449 103.85546875 171.55078125 C103.24866776 172.16898239 102.64186676 172.78718353 102.01667786 173.42411804 C100.73424696 174.72540261 99.44891336 176.02383206 98.16088867 177.31958008 C96.19080663 179.30916065 94.24305444 181.31903122 92.29492188 183.33007812 C91.04559501 184.5924577 89.7949863 185.85357024 88.54296875 187.11328125 C87.96258347 187.71836014 87.38219818 188.32343903 86.78422546 188.94685364 C85.10620117 190.60668945 85.10620117 190.60668945 82 193 C77.60481727 192.9547942 74.74829847 190.73720238 71.125 188.375 C66.48590367 185.57901299 66.48590367 185.57901299 61.1875 184.875 C57.73271633 186.09433541 54.36742289 187.55681876 51 189 C49.02 195.27 47.04 201.54 45 208 C30.15 208 15.3 208 0 208 C-1.98 201.73 -3.96 195.46 -6 189 C-13.03565445 185.17874512 -13.03565445 185.17874512 -20 185 C-23.08919052 186.61713639 -25.98072161 188.37285202 -28.91601562 190.24414062 C-33.515855 193.05377225 -33.515855 193.05377225 -36.0100708 192.77674866 C-38.2594438 191.89872875 -39.42475473 190.93807745 -41.11621094 189.22436523 C-41.69651062 188.64383896 -42.2768103 188.06331268 -42.87469482 187.4651947 C-43.48838928 186.83601639 -44.10208374 186.20683807 -44.734375 185.55859375 C-45.37240051 184.91632339 -46.01042603 184.27405304 -46.66778564 183.61231995 C-48.70234118 181.56098274 -50.72621379 179.49945727 -52.75 177.4375 C-54.12821491 176.04423766 -55.50711325 174.65165102 -56.88671875 173.25976562 C-60.26579046 169.84763135 -63.63531864 166.42632293 -67 163 C-65.58049544 158.48083287 -63.84904447 155.10894718 -61.1875 151.1875 C-58.61548768 147.05232551 -58.61548768 147.05232551 -58.140625 142.36328125 C-58.91336086 140.07158911 -59.80932585 138.10168818 -61 136 C-61.268125 135.3299292 -61.53625 134.6598584 -61.8125 133.96948242 C-62.83263782 131.87107276 -62.83263782 131.87107276 -64.86352539 131.1027832 C-65.96942017 130.82954224 -65.96942017 130.82954224 -67.09765625 130.55078125 C-67.89880859 130.34259766 -68.69996094 130.13441406 -69.52539062 129.91992188 C-70.36263672 129.71947266 -71.19988281 129.51902344 -72.0625 129.3125 C-73.72069212 128.89445769 -75.37828084 128.47401212 -77.03515625 128.05078125 C-77.7712915 127.87200439 -78.50742676 127.69322754 -79.26586914 127.5090332 C-81 127 -81 127 -82 126 C-82.0927833 124.61839885 -82.11747043 123.23211962 -82.11352539 121.84741211 C-82.11341209 120.52615578 -82.11341209 120.52615578 -82.11329651 119.1782074 C-82.10555458 117.74227989 -82.10555458 117.74227989 -82.09765625 116.27734375 C-82.0962413 115.30213272 -82.09482635 114.32692169 -82.09336853 113.32215881 C-82.08775133 110.19390857 -82.07519593 107.06572877 -82.0625 103.9375 C-82.05748722 101.82226666 -82.05292393 99.70703219 -82.04882812 97.59179688 C-82.03777631 92.39450704 -82.02102146 87.19725855 -82 82 C-80.73061617 81.50859369 -79.45973224 81.02106128 -78.18823242 80.53515625 C-77.48067307 80.26324463 -76.77311371 79.99133301 -76.04411316 79.71118164 C-73.5036208 78.82730126 -70.9630631 78.43337674 -68.3125 78 C-64.7892349 77.08238082 -63.37120491 76.47825363 -61.1171875 73.57421875 C-58.35008912 68.04585631 -58.35008912 68.04585631 -58.66015625 62.02734375 C-60.59008436 57.66671901 -63.15086589 53.80200671 -65.734375 49.8046875 C-66.15203125 48.87914062 -66.5696875 47.95359375 -67 47 C-65.91920316 44.14298881 -64.39514523 42.13326395 -62.28198242 39.9597168 C-61.73769089 39.39621017 -61.19339935 38.83270355 -60.63261414 38.25212097 C-60.04615616 37.65716324 -59.45969818 37.06220551 -58.85546875 36.44921875 C-58.24866776 35.83101761 -57.64186676 35.21281647 -57.01667786 34.57588196 C-55.73424696 33.27459739 -54.44891336 31.97616794 -53.16088867 30.68041992 C-51.19080663 28.69083935 -49.24305444 26.68096878 -47.29492188 24.66992188 C-46.04559501 23.4075423 -44.7949863 22.14642976 -43.54296875 20.88671875 C-42.96258347 20.28163986 -42.38219818 19.67656097 -41.78422546 19.05314636 C-40.10620117 17.39331055 -40.10620117 17.39331055 -37 15 C-32.60481727 15.0452058 -29.74829847 17.26279762 -26.125 19.625 C-21.48590367 22.42098701 -21.48590367 22.42098701 -16.1875 23.125 C-12.73271633 21.90566459 -9.36742289 20.44318124 -6 19 C-3.03 9.595 -3.03 9.595 0 0 Z M-19.0390625 72.4140625 C-28.17205306 84.65615623 -30.14632257 98.11701867 -29 113 C-26.79400661 125.54492629 -20.01161345 137.07481327 -10 145 C3.08247287 153.8494383 16.21330343 157.93249822 32.1015625 155.53125 C47.07144353 152.2819735 59.10882847 143.3380891 67.53125 130.625 C74.70292758 117.80753369 76.41462912 102.20340352 72.4375 88.0625 C67.05784355 73.0749659 56.95413698 62.70811745 42.8125 55.79833984 C20.42455787 45.93727159 -3.84019972 54.42000656 -19.0390625 72.4140625 Z " fill="#000000" transform="translate(285,203)"/>
</svg>
